<svg width="128" height="130" viewBox="0 0 128 130" fill="none" xmlns="http://www.w3.org/2000/svg">
<rect x="24.0416" y="-34" width="197" height="34" transform="rotate(45 24.0416 -34)" fill="#F2C94C"/>
<path d="M48.0667 21.1381C47.9959 21.0674 47.9606 20.9825 47.9606 20.8835C47.9606 20.7846 47.9959 20.6997 48.0667 20.629L54.9716 13.7241C55.0493 13.6463 55.1342 13.6039 55.2261 13.5968C55.3251 13.5968 55.4135 13.6357 55.4913 13.7135L58.5672 16.7894C59.3945 17.6167 59.8258 18.4157 59.8612 19.1865C59.9107 19.9572 59.6208 20.6573 58.9915 21.2866C58.6238 21.6543 58.2172 21.877 57.7717 21.9548C57.3404 22.0326 56.9479 22.0078 56.5944 21.8806C56.757 22.3119 56.7853 22.7786 56.6792 23.2806C56.5802 23.7898 56.3363 24.2388 55.9474 24.6277C55.2898 25.2853 54.5367 25.5929 53.6882 25.5505C52.8467 25.5151 52.0265 25.0979 51.2274 24.2989L48.0667 21.1381ZM55.3322 19.6426C55.6999 20.0103 56.0676 20.2012 56.4353 20.2153C56.803 20.2295 57.1353 20.0881 57.4323 19.7911C57.7363 19.487 57.8742 19.1582 57.8459 18.8047C57.8247 18.444 57.6303 18.0799 57.2626 17.7122L55.5973 16.0469L53.6669 17.9773L55.3322 19.6426ZM52.182 23.0049C52.5497 23.3726 52.9351 23.5599 53.3381 23.567C53.7483 23.567 54.1089 23.4115 54.42 23.1003C54.7382 22.7821 54.8938 22.4215 54.8867 22.0185C54.8867 21.6083 54.7029 21.2194 54.3352 20.8517L52.5639 19.0804L50.4107 21.2336L52.182 23.0049ZM55.338 28.4094C55.2673 28.3387 55.2319 28.2539 55.2319 28.1549C55.2319 28.0559 55.2673 27.971 55.338 27.9003L62.2429 20.9954C62.3207 20.9176 62.4055 20.8752 62.4974 20.8681C62.5964 20.8681 62.6848 20.907 62.7626 20.9848L67.4295 25.6517C67.5073 25.7295 67.5462 25.8179 67.5462 25.9169C67.5462 26.0159 67.5073 26.1043 67.4295 26.182L66.7295 26.8821C66.6517 26.9599 66.5633 26.9988 66.4643 26.9988C66.3724 26.9917 66.2875 26.9493 66.2097 26.8715L62.7202 23.3819L60.8428 25.2593L64.099 28.5155C64.1768 28.5933 64.2157 28.6817 64.2157 28.7807C64.2228 28.8726 64.1874 28.9574 64.1096 29.0352L63.452 29.6928C63.3742 29.7706 63.2859 29.8095 63.1869 29.8095C63.0949 29.8024 63.0101 29.76 62.9323 29.6822L59.6761 26.426L57.7351 28.367L61.3095 31.9414C61.3873 32.0192 61.4262 32.1076 61.4262 32.2066C61.4262 32.3056 61.3873 32.394 61.3095 32.4718L60.6095 33.1718C60.5317 33.2496 60.4433 33.2885 60.3443 33.2885C60.2524 33.2814 60.1675 33.239 60.0897 33.1612L55.338 28.4094ZM64.1528 37.4364C63.5235 36.8071 63.078 36.1707 62.8164 35.5272C62.5548 34.8837 62.4628 34.2898 62.5406 33.7453C62.6184 33.2008 62.8305 32.7412 63.177 32.3664C63.2406 32.3028 63.3149 32.271 63.3997 32.271C63.4846 32.271 63.5588 32.3028 63.6225 32.3664L64.5665 33.3104C64.6513 33.3953 64.6973 33.4766 64.7044 33.5544C64.7256 33.6322 64.722 33.7276 64.6937 33.8408C64.524 34.1519 64.4852 34.516 64.5771 34.9332C64.669 35.3504 64.9342 35.7782 65.3726 36.2166C65.8746 36.7187 66.3342 37.0157 66.7514 37.1076C67.1757 37.1924 67.5363 37.0864 67.8333 36.7894C68.0313 36.5914 68.1268 36.3616 68.1197 36.1C68.1197 35.8454 68.0348 35.5413 67.8651 35.1878C67.7025 34.8413 67.4338 34.3463 67.059 33.7029C66.4226 32.6705 66.0726 31.7972 66.009 31.083C65.9595 30.3689 66.2388 29.7077 66.8469 29.0996C67.257 28.6895 67.7308 28.4349 68.2682 28.3359C68.8126 28.244 69.3854 28.3147 69.9864 28.5481C70.5946 28.7885 71.1779 29.188 71.7365 29.7466C72.3164 30.3264 72.7159 30.931 72.9351 31.5603C73.1543 32.1897 73.2179 32.7695 73.126 33.2998C73.0482 33.8301 72.8644 34.2544 72.5745 34.5726C72.5108 34.6363 72.4366 34.6681 72.3517 34.6681C72.2669 34.6681 72.1926 34.6363 72.129 34.5726L71.1426 33.5862C70.9941 33.4377 70.9587 33.268 71.0365 33.0771C71.2203 32.8084 71.2663 32.4796 71.1744 32.0907C71.0895 31.6947 70.8703 31.3199 70.5168 30.9664C70.1208 30.5704 69.7354 30.3335 69.3607 30.2557C68.9859 30.1779 68.6571 30.2805 68.3742 30.5633C68.1762 30.7613 68.0702 30.9805 68.056 31.2209C68.0419 31.4613 68.1055 31.7513 68.247 32.0907C68.3955 32.4371 68.6394 32.9003 68.9788 33.4801C69.4596 34.2438 69.7955 34.8979 69.9864 35.4424C70.1844 35.9939 70.2375 36.4924 70.1455 36.9379C70.0536 37.3834 69.7991 37.8147 69.3819 38.2319C68.9293 38.6844 68.4061 38.9531 67.8121 39.038C67.2323 39.1228 66.6241 39.0238 65.9878 38.741C65.3584 38.4652 64.7468 38.0304 64.1528 37.4364ZM70.2918 43.3632C70.2211 43.2925 70.1857 43.2077 70.1857 43.1087C70.1857 43.0097 70.2211 42.9248 70.2918 42.8541L76.1572 36.9887L74.195 35.0265C74.1243 34.9557 74.089 34.8709 74.089 34.7719C74.089 34.6729 74.1243 34.5881 74.195 34.5173L74.9799 33.7325C75.0577 33.6547 75.1425 33.6122 75.2345 33.6052C75.3335 33.6052 75.4219 33.6441 75.4996 33.7218L80.909 39.1312C80.9868 39.209 81.0257 39.2974 81.0257 39.3964C81.0257 39.4954 80.9868 39.5838 80.909 39.6615L80.1241 40.4464C80.0534 40.5171 79.9686 40.5525 79.8696 40.5525C79.7706 40.5525 79.6822 40.5136 79.6044 40.4358L77.6528 38.4842L71.7873 44.3497C71.7166 44.4204 71.6318 44.4557 71.5328 44.4557C71.4338 44.4557 71.3454 44.4168 71.2676 44.3391L70.2918 43.3632ZM78.8747 51.9461C78.6696 51.7411 78.6343 51.5077 78.7686 51.2461L83.3083 42.1669L83.3825 42.0502C83.4461 41.9865 83.5204 41.9547 83.6052 41.9547C83.6901 41.9547 83.7643 41.9865 83.828 42.0502L84.7614 42.9836C84.8533 43.0755 84.8992 43.1709 84.8992 43.2699C84.9134 43.3689 84.8992 43.4609 84.8568 43.5457L81.1869 50.8006L88.4418 47.1307C88.5126 47.0883 88.6009 47.0706 88.707 47.0777C88.8131 47.0848 88.9121 47.1343 89.004 47.2262L89.9374 48.1596C89.9939 48.2162 90.0222 48.2869 90.0222 48.3717C90.0293 48.4636 90.001 48.5414 89.9374 48.6051L89.8207 48.6793L80.7415 53.2189C80.4798 53.3533 80.2465 53.3179 80.0414 53.1129L78.8747 51.9461ZM82.8529 55.9244C82.7963 55.8678 82.7645 55.7935 82.7575 55.7016C82.7575 55.6168 82.7893 55.5425 82.8529 55.4789L82.9696 55.4046L92.367 51.1196C92.5933 50.9923 92.8054 51.0276 93.0034 51.2256L94.1596 52.3818C94.3434 52.5656 94.3788 52.7777 94.2656 53.0182L89.9805 62.4156C89.9664 62.4439 89.9381 62.4792 89.8957 62.5217C89.8321 62.5853 89.7578 62.6171 89.673 62.6171C89.5881 62.6171 89.5174 62.5888 89.4608 62.5323L88.5381 61.6095C88.4461 61.5176 88.3966 61.4257 88.3896 61.3337C88.3825 61.2418 88.3966 61.164 88.432 61.1004L89.2275 59.3079L86.0773 56.1577L84.2848 56.9532C84.0939 57.031 83.9242 56.9956 83.7757 56.8471L82.8529 55.9244ZM90.076 57.7169L92.1443 53.2303L87.6683 55.3092L90.076 57.7169ZM90.9177 63.9892C90.847 63.9185 90.8117 63.8336 90.8117 63.7346C90.8117 63.6356 90.847 63.5508 90.9177 63.4801L97.8332 56.5646C97.911 56.4868 97.9959 56.4514 98.0878 56.4585C98.1868 56.4585 98.2717 56.4939 98.3424 56.5646L99.3288 57.551C99.4066 57.6288 99.4419 57.7136 99.4348 57.8055C99.4419 57.8975 99.4066 57.9823 99.3288 58.0601L93.4209 63.968L96.7832 67.3303C96.861 67.4081 96.8999 67.4964 96.8999 67.5954C96.8999 67.6944 96.861 67.7828 96.7832 67.8606L96.0407 68.6031C95.9629 68.6808 95.8746 68.7197 95.7756 68.7197C95.6836 68.7127 95.5988 68.6702 95.521 68.5925L90.9177 63.9892ZM99.5136 72.7972C98.5591 71.8426 98.0605 70.8562 98.0181 69.838C97.9757 68.8198 98.4495 67.8157 99.4394 66.8257L103.756 62.5088C103.834 62.431 103.919 62.3886 104.011 62.3815C104.11 62.3815 104.198 62.4204 104.276 62.4982L105.241 63.4634C105.319 63.5412 105.354 63.6261 105.347 63.718C105.347 63.817 105.308 63.9054 105.231 63.9831L100.914 68.3C100.348 68.8657 100.055 69.4279 100.033 69.9865C100.019 70.538 100.26 71.0613 100.755 71.5563C101.25 72.0512 101.769 72.2881 102.314 72.2669C102.872 72.2457 103.435 71.9522 104 71.3866L108.317 67.0697C108.395 66.9919 108.483 66.953 108.582 66.953C108.681 66.953 108.77 66.9919 108.847 67.0697L109.802 68.0243C109.88 68.102 109.915 68.1869 109.908 68.2788C109.908 68.3778 109.869 68.4662 109.791 68.544L105.475 72.8609C104.485 73.8508 103.481 74.3246 102.462 74.2822C101.451 74.2468 100.468 73.7518 99.5136 72.7972ZM104.476 77.5478C104.406 77.4771 104.37 77.3923 104.37 77.2933C104.37 77.1943 104.406 77.1094 104.476 77.0387L111.381 70.1338C111.459 70.056 111.544 70.0136 111.636 70.0065C111.735 70.0065 111.823 70.0454 111.901 70.1232L116.568 74.7901C116.646 74.8679 116.685 74.9563 116.685 75.0553C116.685 75.1543 116.646 75.2427 116.568 75.3204L115.868 76.0205C115.79 76.0983 115.702 76.1371 115.603 76.1371C115.511 76.1301 115.426 76.0877 115.348 76.0099L111.859 72.5203L109.981 74.3977L113.237 77.6539C113.315 77.7317 113.354 77.8201 113.354 77.9191C113.361 78.011 113.326 78.0958 113.248 78.1736L112.59 78.8312C112.513 78.909 112.424 78.9479 112.325 78.9479C112.233 78.9408 112.148 78.8984 112.071 78.8206L108.814 75.5644L106.873 77.5054L110.448 81.0798C110.526 81.1576 110.565 81.246 110.565 81.345C110.565 81.444 110.526 81.5324 110.448 81.6102L109.748 82.3102C109.67 82.388 109.582 82.4269 109.483 82.4269C109.391 82.4198 109.306 82.3774 109.228 82.2996L104.476 77.5478Z" fill="#333333"/>
</svg>
